<?xml version="1.0" encoding="UTF-8"?>
<!DOCTYPE svg PUBLIC "-//W3C//DTD SVG 1.1//EN" "http://www.w3.org/Graphics/SVG/1.1/DTD/svg11.dtd">
<svg xmlns="http://www.w3.org/2000/svg" version="1.1" width="94" height="32" style="shape-rendering:geometricPrecision; text-rendering:geometricPrecision; image-rendering:optimizeQuality; fill-rule:evenodd; clip-rule:evenodd" xmlns:xlink="http://www.w3.org/1999/xlink">
<g><path style="opacity:1" fill="transparent" d="M -0.5,-0.5 C 166.167,-0.5 332.833,-0.5 499.5,-0.5C 499.5,166.167 499.5,332.833 499.5,499.5C 332.833,499.5 166.167,499.5 -0.5,499.5C -0.5,332.833 -0.5,166.167 -0.5,-0.5 Z"/></g>
<g><path style="opacity:1" fill="orange" d="M 344.5,164.5 C 372.5,164.5 400.5,164.5 428.5,164.5C 428.5,192.833 428.5,221.167 428.5,249.5C 425.167,249.5 421.833,249.5 418.5,249.5C 418.5,224.167 418.5,198.833 418.5,173.5C 393.833,173.5 369.167,173.5 344.5,173.5C 344.5,170.5 344.5,167.5 344.5,164.5 Z"/></g>
<g><path style="opacity:1" fill="#060606" d="M 162.5,209.5 C 162.333,221.171 162.5,232.838 163,244.5C 163.513,243.473 164.013,242.473 164.5,241.5C 170.892,232.014 179.226,230.014 189.5,235.5C 194.938,233.612 200.605,232.946 206.5,233.5C 206.5,229.167 206.5,224.833 206.5,220.5C 210.5,220.5 214.5,220.5 218.5,220.5C 218.5,224.833 218.5,229.167 218.5,233.5C 220.167,233.5 221.833,233.5 223.5,233.5C 230.31,213.929 243.644,207.429 263.5,214C 266.756,215.459 269.423,217.626 271.5,220.5C 269.733,223.77 267.4,226.603 264.5,229C 262.311,227.532 259.977,225.865 257.5,224C 244.344,221.299 237.344,226.799 236.5,240.5C 237.859,253.725 244.859,258.892 257.5,256C 260.493,254.841 262.16,252.675 262.5,249.5C 263.404,248.791 263.737,247.791 263.5,246.5C 259.167,246.5 254.833,246.5 250.5,246.5C 250.5,243.167 250.5,239.833 250.5,236.5C 258.5,236.5 266.5,236.5 274.5,236.5C 274.5,235.5 274.5,234.5 274.5,233.5C 278.5,233.5 282.5,233.5 286.5,233.5C 286.334,240.175 286.5,246.842 287,253.5C 288.458,259.059 291.958,260.892 297.5,259C 298.701,258.097 299.535,256.931 300,255.5C 300.5,248.174 300.666,240.841 300.5,233.5C 304.5,233.5 308.5,233.5 312.5,233.5C 312.5,240.833 312.5,248.167 312.5,255.5C 311.769,263.399 307.435,267.899 299.5,269C 292.457,270.281 285.79,269.281 279.5,266C 276.623,262.372 275.123,258.206 275,253.5C 272.101,260.732 266.934,265.565 259.5,268C 244.878,271.907 233.712,267.407 226,254.5C 224.228,250.687 223.395,246.687 223.5,242.5C 221.833,242.5 220.167,242.5 218.5,242.5C 218.334,247.179 218.501,251.845 219,256.5C 220.763,257.944 222.763,258.944 225,259.5C 229.687,266.753 227.687,270.086 219,269.5C 213.659,269.669 209.992,267.336 208,262.5C 206.671,255.908 206.171,249.241 206.5,242.5C 205.5,242.5 204.5,242.5 203.5,242.5C 203.5,251.167 203.5,259.833 203.5,268.5C 199.5,268.5 195.5,268.5 191.5,268.5C 191.657,267.127 191.49,265.793 191,264.5C 183.906,270.406 176.406,270.906 168.5,266C 167.035,264.226 165.702,262.392 164.5,260.5C 163.91,259.234 163.41,257.901 163,256.5C 162.501,260.486 162.334,264.486 162.5,268.5C 158.5,268.5 154.5,268.5 150.5,268.5C 150.5,253.5 150.5,238.5 150.5,223.5C 144.167,223.5 137.833,223.5 131.5,223.5C 131.5,227.167 131.5,230.833 131.5,234.5C 137.5,234.5 143.5,234.5 149.5,234.5C 149.5,238.167 149.5,241.833 149.5,245.5C 143.5,245.5 137.5,245.5 131.5,245.5C 131.5,253.167 131.5,260.833 131.5,268.5C 127.167,268.5 122.833,268.5 118.5,268.5C 118.5,249.833 118.5,231.167 118.5,212.5C 129.167,212.5 139.833,212.5 150.5,212.5C 150.5,211.5 150.5,210.5 150.5,209.5C 154.5,209.5 158.5,209.5 162.5,209.5 Z"/></g>
<g><path style="opacity:1" fill="#8b8985" d="M 162.5,209.5 C 163.167,220.167 163.833,230.833 164.5,241.5C 164.013,242.473 163.513,243.473 163,244.5C 162.5,232.838 162.333,221.171 162.5,209.5 Z"/></g>
<g><path style="opacity:1" fill="#040404" d="M 327.5,259.5 C 327.108,257.821 326.608,256.154 326,254.5C 325.501,259.155 325.334,263.821 325.5,268.5C 321.833,268.5 318.167,268.5 314.5,268.5C 314.5,256.833 314.5,245.167 314.5,233.5C 318.167,233.5 321.833,233.5 325.5,233.5C 325.334,237.514 325.501,241.514 326,245.5C 327.039,244.756 327.539,243.756 327.5,242.5C 334.218,231.58 343.051,229.58 354,236.5C 354.5,227.506 354.666,218.506 354.5,209.5C 358.5,209.5 362.5,209.5 366.5,209.5C 366.333,221.171 366.5,232.838 367,244.5C 371.984,234.925 379.817,231.092 390.5,233C 399.944,236.048 404.278,242.548 403.5,252.5C 395.167,252.5 386.833,252.5 378.5,252.5C 378.444,255.561 379.778,257.728 382.5,259C 387.091,260.075 391.257,259.241 395,256.5C 397.227,257.363 399.393,258.363 401.5,259.5C 402.583,260.365 402.749,261.365 402,262.5C 393.367,270.346 383.867,271.513 373.5,266C 370.567,263.736 368.4,260.902 367,257.5C 366.501,261.152 366.335,264.818 366.5,268.5C 362.5,268.5 358.5,268.5 354.5,268.5C 354.657,267.127 354.49,265.793 354,264.5C 347.803,270.104 340.969,270.937 333.5,267C 330.906,264.914 328.906,262.414 327.5,259.5 Z"/></g>
<g><path style="opacity:1" fill="orange" d="M 318.5,211.5 C 326.339,212.18 328.839,216.18 326,223.5C 319.665,228.084 315.498,226.584 313.5,219C 313.782,215.556 315.448,213.056 318.5,211.5 Z"/></g>
<g><path style="opacity:1" fill="#414141" d="M 81.5,219.5 C 84.8333,219.5 88.1667,219.5 91.5,219.5C 91.5,244.5 91.5,269.5 91.5,294.5C 116.5,294.5 141.5,294.5 166.5,294.5C 166.5,297.833 166.5,301.167 166.5,304.5C 138.167,304.5 109.833,304.5 81.5,304.5C 81.5,276.167 81.5,247.833 81.5,219.5 Z"/></g>
<g><path style="opacity:1" fill="white" d="M 312.5,233.5 C 313.167,233.5 313.833,233.5 314.5,233.5C 314.5,245.167 314.5,256.833 314.5,268.5C 313.833,264.167 313.167,259.833 312.5,255.5C 312.5,248.167 312.5,240.833 312.5,233.5 Z"/></g>
<g><path style="opacity:1" fill="#52514e" d="M 325.5,233.5 C 326.167,236.5 326.833,239.5 327.5,242.5C 327.539,243.756 327.039,244.756 326,245.5C 325.501,241.514 325.334,237.514 325.5,233.5 Z"/></g>
<g><path style="opacity:1" fill="white" d="M 391.5,244.5 C 389.696,245.162 387.696,245.495 385.5,245.5C 383.048,245.461 381.048,244.794 379.5,243.5C 380.512,241.124 382.345,240.124 385,240.5C 388.246,240.201 390.413,241.535 391.5,244.5 Z"/></g>
<g><path style="opacity:1" fill="white" d="M 180.5,242.5 C 189.365,242.847 192.532,247.181 190,255.5C 184.186,261.205 179.186,260.538 175,253.5C 174.176,248.482 176.009,244.815 180.5,242.5 Z"/></g>
<g><path style="opacity:1" fill="white" d="M 343.5,242.5 C 352.153,241.987 355.653,245.987 354,254.5C 351.774,258.861 348.274,260.361 343.5,259C 338.931,256.459 337.431,252.625 339,247.5C 340.193,245.503 341.693,243.836 343.5,242.5 Z"/></g>
<g><path style="opacity:1" fill="#000" d="M 419.5,254.5 C 430.818,253.99 433.485,258.49 427.5,268C 418.895,270.734 415.062,267.567 416,258.5C 416.69,256.65 417.856,255.316 419.5,254.5 Z"/></g>
</svg>
