<?xml version="1.0" encoding="UTF-8"?>
<svg xmlns="http://www.w3.org/2000/svg" xmlns:xlink="http://www.w3.org/1999/xlink" width="92px" height="92px" viewBox="0 0 92 92" version="1.1">
<g id="surface1">
<path style=" stroke:none;fill-rule:evenodd;fill:rgb(94.117647%,93.333333%,90.196078%);fill-opacity:1;" d="M -0.09375 -0.09375 C 30.574219 -0.09375 61.242188 -0.09375 91.90625 -0.09375 C 91.90625 30.574219 91.90625 61.242188 91.90625 91.90625 C 61.242188 91.90625 30.574219 91.90625 -0.09375 91.90625 C -0.09375 61.242188 -0.09375 30.574219 -0.09375 -0.09375 Z M -0.09375 -0.09375 "/>
<path style=" stroke:none;fill-rule:evenodd;fill:rgb(25.882353%,25.490196%,25.490196%);fill-opacity:1;" d="M 63.386719 30.269531 C 68.539062 30.269531 73.691406 30.269531 78.84375 30.269531 C 78.84375 35.480469 78.84375 40.695312 78.84375 45.90625 C 78.230469 45.90625 77.617188 45.90625 77.003906 45.90625 C 77.003906 41.246094 77.003906 36.585938 77.003906 31.925781 C 72.464844 31.925781 67.925781 31.925781 63.386719 31.925781 C 63.386719 31.371094 63.386719 30.820312 63.386719 30.269531 Z M 63.386719 30.269531 "/>
<path style=" stroke:none;fill-rule:evenodd;fill:rgb(2.352941%,2.352941%,2.352941%);fill-opacity:1;" d="M 29.898438 38.546875 C 29.871094 40.695312 29.898438 42.84375 29.992188 44.988281 C 30.085938 44.800781 30.179688 44.613281 30.269531 44.4375 C 31.445312 42.691406 32.976562 42.324219 34.867188 43.332031 C 35.867188 42.984375 36.910156 42.863281 37.996094 42.964844 C 37.996094 42.167969 37.996094 41.371094 37.996094 40.570312 C 38.730469 40.570312 39.46875 40.570312 40.203125 40.570312 C 40.203125 41.371094 40.203125 42.167969 40.203125 42.964844 C 40.511719 42.964844 40.816406 42.964844 41.125 42.964844 C 42.378906 39.363281 44.832031 38.167969 48.484375 39.375 C 49.082031 39.644531 49.574219 40.042969 49.957031 40.570312 C 49.632812 41.171875 49.203125 41.695312 48.667969 42.136719 C 48.265625 41.867188 47.835938 41.558594 47.378906 41.214844 C 44.960938 40.71875 43.671875 41.730469 43.515625 44.253906 C 43.765625 46.683594 45.054688 47.636719 47.378906 47.105469 C 47.929688 46.890625 48.238281 46.492188 48.300781 45.90625 C 48.464844 45.777344 48.527344 45.59375 48.484375 45.355469 C 47.6875 45.355469 46.890625 45.355469 46.09375 45.355469 C 46.09375 44.742188 46.09375 44.128906 46.09375 43.515625 C 47.5625 43.515625 49.035156 43.515625 50.507812 43.515625 C 50.507812 43.332031 50.507812 43.148438 50.507812 42.964844 C 51.242188 42.964844 51.980469 42.964844 52.714844 42.964844 C 52.683594 44.191406 52.714844 45.417969 52.808594 46.644531 C 53.078125 47.667969 53.71875 48.003906 54.738281 47.65625 C 54.960938 47.488281 55.113281 47.273438 55.199219 47.011719 C 55.292969 45.664062 55.324219 44.316406 55.292969 42.964844 C 56.027344 42.964844 56.765625 42.964844 57.5 42.964844 C 57.5 44.3125 57.5 45.664062 57.5 47.011719 C 57.367188 48.464844 56.566406 49.292969 55.109375 49.496094 C 53.8125 49.730469 52.585938 49.546875 51.429688 48.945312 C 50.898438 48.277344 50.621094 47.511719 50.601562 46.644531 C 50.066406 47.976562 49.117188 48.863281 47.746094 49.3125 C 45.058594 50.03125 43.003906 49.203125 41.585938 46.828125 C 41.257812 46.125 41.105469 45.390625 41.125 44.621094 C 40.816406 44.621094 40.511719 44.621094 40.203125 44.621094 C 40.171875 45.480469 40.203125 46.339844 40.296875 47.195312 C 40.621094 47.460938 40.988281 47.644531 41.398438 47.746094 C 42.261719 49.082031 41.894531 49.695312 40.296875 49.589844 C 39.3125 49.617188 38.636719 49.191406 38.273438 48.300781 C 38.027344 47.085938 37.933594 45.859375 37.996094 44.621094 C 37.8125 44.621094 37.628906 44.621094 37.445312 44.621094 C 37.445312 46.214844 37.445312 47.808594 37.445312 49.402344 C 36.707031 49.402344 35.972656 49.402344 35.234375 49.402344 C 35.265625 49.152344 35.234375 48.90625 35.144531 48.667969 C 33.839844 49.753906 32.457031 49.847656 31.003906 48.945312 C 30.734375 48.617188 30.488281 48.28125 30.269531 47.933594 C 30.160156 47.699219 30.066406 47.453125 29.992188 47.195312 C 29.898438 47.929688 29.871094 48.664062 29.898438 49.402344 C 29.164062 49.402344 28.429688 49.402344 27.691406 49.402344 C 27.691406 46.644531 27.691406 43.882812 27.691406 41.125 C 26.527344 41.125 25.359375 41.125 24.195312 41.125 C 24.195312 41.796875 24.195312 42.472656 24.195312 43.148438 C 25.300781 43.148438 26.402344 43.148438 27.507812 43.148438 C 27.507812 43.824219 27.507812 44.496094 27.507812 45.171875 C 26.402344 45.171875 25.300781 45.171875 24.195312 45.171875 C 24.195312 46.582031 24.195312 47.992188 24.195312 49.402344 C 23.398438 49.402344 22.601562 49.402344 21.804688 49.402344 C 21.804688 45.96875 21.804688 42.535156 21.804688 39.101562 C 23.765625 39.101562 25.730469 39.101562 27.691406 39.101562 C 27.691406 38.914062 27.691406 38.730469 27.691406 38.546875 C 28.429688 38.546875 29.164062 38.546875 29.898438 38.546875 Z M 29.898438 38.546875 "/>
<path style=" stroke:none;fill-rule:evenodd;fill:rgb(54.509804%,53.72549%,52.156863%);fill-opacity:1;" d="M 29.898438 38.546875 C 30.023438 40.511719 30.144531 42.472656 30.269531 44.4375 C 30.179688 44.613281 30.085938 44.800781 29.992188 44.988281 C 29.898438 42.84375 29.871094 40.695312 29.898438 38.546875 Z M 29.898438 38.546875 "/>
<path style=" stroke:none;fill-rule:evenodd;fill:rgb(1.568627%,1.568627%,1.568627%);fill-opacity:1;" d="M 60.261719 47.746094 C 60.1875 47.4375 60.097656 47.132812 59.984375 46.828125 C 59.890625 47.683594 59.863281 48.542969 59.890625 49.402344 C 59.21875 49.402344 58.542969 49.402344 57.867188 49.402344 C 57.867188 47.257812 57.867188 45.109375 57.867188 42.964844 C 58.542969 42.964844 59.21875 42.964844 59.890625 42.964844 C 59.863281 43.703125 59.890625 44.4375 59.984375 45.171875 C 60.175781 45.035156 60.265625 44.851562 60.261719 44.621094 C 61.496094 42.609375 63.121094 42.242188 65.136719 43.515625 C 65.226562 41.859375 65.257812 40.207031 65.226562 38.546875 C 65.964844 38.546875 66.699219 38.546875 67.4375 38.546875 C 67.40625 40.695312 67.4375 42.84375 67.527344 44.988281 C 68.445312 43.226562 69.886719 42.519531 71.851562 42.871094 C 73.589844 43.433594 74.386719 44.628906 74.242188 46.460938 C 72.710938 46.460938 71.175781 46.460938 69.644531 46.460938 C 69.632812 47.023438 69.878906 47.421875 70.378906 47.65625 C 71.226562 47.855469 71.992188 47.699219 72.679688 47.195312 C 73.089844 47.355469 73.488281 47.539062 73.875 47.746094 C 74.074219 47.90625 74.105469 48.089844 73.96875 48.300781 C 72.378906 49.742188 70.632812 49.957031 68.722656 48.945312 C 68.183594 48.527344 67.785156 48.007812 67.527344 47.378906 C 67.4375 48.050781 67.40625 48.726562 67.4375 49.402344 C 66.699219 49.402344 65.964844 49.402344 65.226562 49.402344 C 65.257812 49.152344 65.226562 48.90625 65.136719 48.667969 C 63.996094 49.699219 62.738281 49.851562 61.363281 49.128906 C 60.886719 48.746094 60.519531 48.285156 60.261719 47.746094 Z M 60.261719 47.746094 "/>
<path style=" stroke:none;fill-rule:evenodd;fill:rgb(5.882353%,5.882353%,5.490196%);fill-opacity:1;" d="M 58.605469 38.914062 C 60.046875 39.042969 60.507812 39.777344 59.984375 41.125 C 58.820312 41.96875 58.050781 41.691406 57.683594 40.296875 C 57.734375 39.664062 58.042969 39.203125 58.605469 38.914062 Z M 58.605469 38.914062 "/>
<path style=" stroke:none;fill-rule:evenodd;fill:rgb(25.490196%,25.490196%,25.490196%);fill-opacity:1;" d="M 14.996094 40.386719 C 15.609375 40.386719 16.222656 40.386719 16.835938 40.386719 C 16.835938 44.988281 16.835938 49.589844 16.835938 54.1875 C 21.4375 54.1875 26.035156 54.1875 30.636719 54.1875 C 30.636719 54.800781 30.636719 55.414062 30.636719 56.027344 C 25.421875 56.027344 20.210938 56.027344 14.996094 56.027344 C 14.996094 50.816406 14.996094 45.601562 14.996094 40.386719 Z M 14.996094 40.386719 "/>
<path style=" stroke:none;fill-rule:evenodd;fill:rgb(57.254902%,56.470588%,54.509804%);fill-opacity:1;" d="M 57.5 42.964844 C 57.621094 42.964844 57.746094 42.964844 57.867188 42.964844 C 57.867188 45.109375 57.867188 47.257812 57.867188 49.402344 C 57.746094 48.605469 57.621094 47.808594 57.5 47.011719 C 57.5 45.664062 57.5 44.3125 57.5 42.964844 Z M 57.5 42.964844 "/>
<path style=" stroke:none;fill-rule:evenodd;fill:rgb(32.156863%,31.764706%,30.588235%);fill-opacity:1;" d="M 59.890625 42.964844 C 60.015625 43.515625 60.136719 44.066406 60.261719 44.621094 C 60.265625 44.851562 60.175781 45.035156 59.984375 45.171875 C 59.890625 44.4375 59.863281 43.703125 59.890625 42.964844 Z M 59.890625 42.964844 "/>
<path style=" stroke:none;fill-rule:evenodd;fill:rgb(91.372549%,90.588235%,87.45098%);fill-opacity:1;" d="M 72.035156 44.988281 C 71.703125 45.109375 71.335938 45.171875 70.933594 45.171875 C 70.480469 45.164062 70.113281 45.042969 69.828125 44.804688 C 70.015625 44.367188 70.351562 44.183594 70.839844 44.253906 C 71.4375 44.195312 71.835938 44.441406 72.035156 44.988281 Z M 72.035156 44.988281 "/>
<path style=" stroke:none;fill-rule:evenodd;fill:rgb(89.411765%,88.627451%,85.882353%);fill-opacity:1;" d="M 33.210938 44.621094 C 34.84375 44.683594 35.425781 45.480469 34.960938 47.011719 C 33.890625 48.0625 32.96875 47.9375 32.199219 46.644531 C 32.046875 45.71875 32.386719 45.046875 33.210938 44.621094 Z M 33.210938 44.621094 "/>
<path style=" stroke:none;fill-rule:evenodd;fill:rgb(89.803922%,89.019608%,85.882353%);fill-opacity:1;" d="M 63.203125 44.621094 C 64.796875 44.527344 65.441406 45.261719 65.136719 46.828125 C 64.726562 47.628906 64.082031 47.90625 63.203125 47.65625 C 62.363281 47.1875 62.085938 46.484375 62.375 45.539062 C 62.59375 45.171875 62.871094 44.867188 63.203125 44.621094 Z M 63.203125 44.621094 "/>
<path style=" stroke:none;fill-rule:evenodd;fill:rgb(41.568627%,41.568627%,40%);fill-opacity:1;" d="M 69.828125 44.804688 C 70.113281 45.042969 70.480469 45.164062 70.933594 45.171875 C 71.335938 45.171875 71.703125 45.109375 72.035156 44.988281 C 72.136719 45 72.195312 45.058594 72.21875 45.171875 C 71.371094 45.355469 70.511719 45.417969 69.644531 45.355469 C 69.601562 45.117188 69.660156 44.933594 69.828125 44.804688 Z M 69.828125 44.804688 "/>
<path style=" stroke:none;fill-rule:evenodd;fill:rgb(58.823529%,58.431373%,56.078431%);fill-opacity:1;" d="M 46.09375 45.355469 C 46.890625 45.355469 47.6875 45.355469 48.484375 45.355469 C 48.527344 45.59375 48.464844 45.777344 48.300781 45.90625 C 47.613281 45.609375 46.878906 45.425781 46.09375 45.355469 Z M 46.09375 45.355469 "/>
<path style=" stroke:none;fill-rule:evenodd;fill:rgb(2.745098%,2.745098%,2.352941%);fill-opacity:1;" d="M 77.1875 46.828125 C 79.269531 46.734375 79.761719 47.5625 78.660156 49.3125 C 77.078125 49.816406 76.371094 49.230469 76.542969 47.5625 C 76.671875 47.222656 76.886719 46.976562 77.1875 46.828125 Z M 77.1875 46.828125 "/>
<path style=" stroke:none;fill-rule:evenodd;fill:rgb(30.196078%,30.196078%,29.019608%);fill-opacity:1;" d="M 60.261719 47.746094 C 60.136719 48.300781 60.015625 48.851562 59.890625 49.402344 C 59.863281 48.542969 59.890625 47.683594 59.984375 46.828125 C 60.097656 47.132812 60.1875 47.4375 60.261719 47.746094 Z M 60.261719 47.746094 "/>
<path style=" stroke:none;fill-rule:evenodd;fill:rgb(51.372549%,50.980392%,49.411765%);fill-opacity:1;" d="M 30.269531 47.933594 C 30.144531 48.421875 30.023438 48.914062 29.898438 49.402344 C 29.871094 48.664062 29.898438 47.929688 29.992188 47.195312 C 30.066406 47.453125 30.160156 47.699219 30.269531 47.933594 Z M 30.269531 47.933594 "/>
</g>
</svg>
