<?xml version="1.0"?>
<svg width="500" height="500" xmlns="http://www.w3.org/2000/svg" xmlns:svg="http://www.w3.org/2000/svg" clip-rule="evenodd" fill-rule="evenodd" version="1.1">
 <g class="layer">
  <title>Layer 1</title>
  <g id="svg_1">
   <path d="m74.5,161.5c121.34,0 242.66,0 364,0c0,49 0,98 0,147c-121.34,0 -242.66,0 -364,0c0,-49 0,-98 0,-147z" fill="#f0eee6" id="svg_2"/>
  </g>
  <g id="svg_3">
   <path d="m344.5,164.5c28,0 56,0 84,0c0,28.33 0,56.67 0,85c-3.33,0 -6.67,0 -10,0c0,-25.33 0,-50.67 0,-76c-24.67,0 -49.33,0 -74,0c0,-3 0,-6 0,-9z" fill="#424141" id="svg_4"/>
  </g>
  <g id="svg_5">
   <path d="m162.5,209.5c-0.17,11.67 0,23.34 0.5,35c0.51,-1.03 1.01,-2.03 1.5,-3c6.39,-9.49 14.73,-11.49 25,-6c5.44,-1.89 11.1,-2.55 17,-2c0,-4.33 0,-8.67 0,-13c4,0 8,0 12,0c0,4.33 0,8.67 0,13c1.67,0 3.33,0 5,0c6.81,-19.57 20.14,-26.07 40,-19.5c3.26,1.46 5.92,3.63 8,6.5c-1.77,3.27 -4.1,6.1 -7,8.5c-2.19,-1.47 -4.52,-3.13 -7,-5c-13.16,-2.7 -20.16,2.8 -21,16.5c1.36,13.22 8.36,18.39 21,15.5c2.99,-1.16 4.66,-3.32 5,-6.5c0.9,-0.71 1.24,-1.71 1,-3c-4.33,0 -8.67,0 -13,0c0,-3.33 0,-6.67 0,-10c8,0 16,0 24,0c0,-1 0,-2 0,-3c4,0 8,0 12,0c-0.17,6.68 0,13.34 0.5,20c1.46,5.56 4.96,7.39 10.5,5.5c1.2,-0.9 2.04,-2.07 2.5,-3.5c0.5,-7.33 0.67,-14.66 0.5,-22c4,0 8,0 12,0c0,7.33 0,14.67 0,22c-0.73,7.9 -5.06,12.4 -13,13.5c-7.04,1.28 -13.71,0.28 -20,-3c-2.88,-3.63 -4.38,-7.79 -4.5,-12.5c-2.9,7.23 -8.07,12.06 -15.5,14.5c-14.62,3.91 -25.79,-0.59 -33.5,-13.5c-1.77,-3.81 -2.6,-7.81 -2.5,-12c-1.67,0 -3.33,0 -5,0c-0.17,4.68 0,9.34 0.5,14c1.76,1.44 3.76,2.44 6,3c4.69,7.25 2.69,10.59 -6,10c-5.34,0.17 -9.01,-2.16 -11,-7c-1.33,-6.59 -1.83,-13.26 -1.5,-20c-1,0 -2,0 -3,0c0,8.67 0,17.33 0,26c-4,0 -8,0 -12,0c0.16,-1.37 -0.01,-2.71 -0.5,-4c-7.09,5.91 -14.59,6.41 -22.5,1.5c-1.47,-1.77 -2.8,-3.61 -4,-5.5c-0.59,-1.27 -1.09,-2.6 -1.5,-4c-0.5,3.99 -0.67,7.99 -0.5,12c-4,0 -8,0 -12,0c0,-15 0,-30 0,-45c-6.33,0 -12.67,0 -19,0c0,3.67 0,7.33 0,11c6,0 12,0 18,0c0,3.67 0,7.33 0,11c-6,0 -12,0 -18,0c0,7.67 0,15.33 0,23c-4.33,0 -8.67,0 -13,0c0,-18.67 0,-37.33 0,-56c10.67,0 21.33,0 32,0c0,-1 0,-2 0,-3c4,0 8,0 12,0z" fill="#060606" id="svg_6"/>
  </g>
  <g id="svg_7">
   <path d="m162.5,209.5c0.67,10.67 1.33,21.33 2,32c-0.49,0.97 -0.99,1.97 -1.5,3c-0.5,-11.66 -0.67,-23.33 -0.5,-35z" fill="#8b8985" id="svg_8"/>
  </g>
  <g id="svg_9">
   <path d="m327.5,259.5c-0.39,-1.68 -0.89,-3.35 -1.5,-5c-0.5,4.65 -0.67,9.32 -0.5,14c-3.67,0 -7.33,0 -11,0c0,-11.67 0,-23.33 0,-35c3.67,0 7.33,0 11,0c-0.17,4.01 0,8.01 0.5,12c1.04,-0.74 1.54,-1.74 1.5,-3c6.72,-10.92 15.55,-12.92 26.5,-6c0.5,-8.99 0.67,-17.99 0.5,-27c4,0 8,0 12,0c-0.17,11.67 0,23.34 0.5,35c4.98,-9.57 12.82,-13.41 23.5,-11.5c9.44,3.05 13.78,9.55 13,19.5c-8.33,0 -16.67,0 -25,0c-0.06,3.06 1.28,5.23 4,6.5c4.59,1.07 8.76,0.24 12.5,-2.5c2.23,0.86 4.39,1.86 6.5,3c1.08,0.87 1.25,1.87 0.5,3c-8.63,7.85 -18.13,9.01 -28.5,3.5c-2.93,-2.26 -5.1,-5.1 -6.5,-8.5c-0.5,3.65 -0.67,7.32 -0.5,11c-4,0 -8,0 -12,0c0.16,-1.37 -0.01,-2.71 -0.5,-4c-6.2,5.6 -13.03,6.44 -20.5,2.5c-2.59,-2.09 -4.59,-4.59 -6,-7.5z" fill="#040404" id="svg_10"/>
  </g>
  <g id="svg_11">
   <path d="m318.5,211.5c7.84,0.68 10.34,4.68 7.5,12c-6.33,4.58 -10.5,3.08 -12.5,-4.5c0.28,-3.44 1.95,-5.94 5,-7.5z" fill="#0f0f0e" id="svg_12"/>
  </g>
  <g id="svg_13">
   <path d="m81.5,219.5c3.33,0 6.67,0 10,0c0,25 0,50 0,75c25,0 50,0 75,0c0,3.33 0,6.67 0,10c-28.33,0 -56.67,0 -85,0c0,-28.33 0,-56.67 0,-85z" fill="#414141" id="svg_14"/>
  </g>
  <g id="svg_15">
   <path d="m312.5,233.5c0.67,0 1.33,0 2,0c0,11.67 0,23.33 0,35c-0.67,-4.33 -1.33,-8.67 -2,-13c0,-7.33 0,-14.67 0,-22z" fill="#92908b" id="svg_16"/>
  </g>
  <g id="svg_17">
   <path d="m325.5,233.5c0.67,3 1.33,6 2,9c0.04,1.26 -0.46,2.26 -1.5,3c-0.5,-3.99 -0.67,-7.99 -0.5,-12z" fill="#52514e" id="svg_18"/>
  </g>
  <g id="svg_19">
   <path d="m391.5,244.5c-1.8,0.66 -3.8,1 -6,1c-2.45,-0.04 -4.45,-0.71 -6,-2c1.01,-2.38 2.85,-3.38 5.5,-3c3.25,-0.3 5.41,1.03 6.5,4z" fill="#e9e7df" id="svg_20"/>
  </g>
  <g id="svg_21">
   <path d="m180.5,242.5c8.87,0.35 12.03,4.68 9.5,13c-5.81,5.7 -10.81,5.04 -15,-2c-0.82,-5.02 1.01,-8.69 5.5,-11z" fill="#e4e2db" id="svg_22"/>
  </g>
  <g id="svg_23">
   <path d="m343.5,242.5c8.65,-0.51 12.15,3.49 10.5,12c-2.23,4.36 -5.73,5.86 -10.5,4.5c-4.57,-2.54 -6.07,-6.37 -4.5,-11.5c1.19,-2 2.69,-3.66 4.5,-5z" fill="#e5e3db" id="svg_24"/>
  </g>
  <g id="svg_25">
   <path d="m379.5,243.5c1.55,1.29 3.55,1.96 6,2c2.2,0 4.2,-0.34 6,-1c0.54,0.06 0.88,0.39 1,1c-4.62,0.99 -9.29,1.33 -14,1c-0.24,-1.29 0.1,-2.29 1,-3z" fill="#6a6a66" id="svg_26"/>
  </g>
  <g id="svg_27">
   <path d="m250.5,246.5c4.33,0 8.67,0 13,0c0.24,1.29 -0.1,2.29 -1,3c-3.73,-1.63 -7.73,-2.63 -12,-3z" fill="#96958f" id="svg_28"/>
  </g>
  <g id="svg_29">
   <path d="m419.5,254.5c11.32,-0.51 13.99,3.99 8,13.5c-8.61,2.73 -12.44,-0.43 -11.5,-9.5c0.69,-1.85 1.86,-3.18 3.5,-4z" fill="#070706" id="svg_30"/>
  </g>
  <g id="svg_31">
   <path d="m327.5,259.5c-0.67,3 -1.33,6 -2,9c-0.17,-4.68 0,-9.35 0.5,-14c0.61,1.65 1.11,3.32 1.5,5z" fill="#4d4d4a" id="svg_32"/>
  </g>
  <g id="svg_33">
   <path d="m164.5,260.5c-0.67,2.67 -1.33,5.33 -2,8c-0.17,-4.01 0,-8.01 0.5,-12c0.41,1.4 0.91,2.73 1.5,4z" fill="#83827e" id="svg_34"/>
  </g>
 </g>
</svg>